PathFileType	4	(X/Y/Z)	C:/Users/beibeiliu/ov580/test_trc/User3\sequence.19_training_dense_left.trc
DataRate	CameraRate	NumFrames	NumMarkers	Units	OrigDataRate	OrigDataStartFrame	OrigNumFrames
120	120	23	19	mm	120	207	275
Frame#	Time	ThumbCMC			ThumbMCP			ThumbIP			ThumbTip			IndexMCP			IndexPIP			IndexTip			MiddleMCP			MiddlePIP			MiddleTip			RingMCP			RingPIP			RingTip			PinkyMCP			PinkyPIP			PinkyTip			BackHand1			BackHand2			BackHand3	
		X0	Y0	Z0	X1	Y1	Z1	X2	Y2	Z2	X3	Y3	Z3	X4	Y4	Z4	X5	Y5	Z5	X6	Y6	Z6	X7	Y7	Z7	X8	Y8	Z8	X9	Y9	Z9	X10	Y10	Z10	X11	Y11	Z11	X12	Y12	Z12	X13	Y13	Z13	X14	Y14	Z14	X15	Y15	Z15	X16	Y16	Z16	X17	Y17	Z17	X18	Y18	Z18	
206	1.71667	-153.721	-25.8272	32.2958	-132.046	-30.7068	21.1061	-107.863	-25.507	8.18996	-85.5719	-15.01	3.75318	-125.433	-44.9032	-35.6609	-99.4272	-50.0076	-51.2612	-81.2386	-59.3508	-64.1906	-129.072	-74.6951	-28.5405	-118.055	-95.9198	-6.37391	-138.677	-77.3673	20.4048	-148.165	-90.0893	-18.5709	-136.261	-99.7322	10.3286	-155.604	-77.2644	28.7549	-162.989	-96.7797	-11.6531	-151.352	-98.6807	15.2316	-164.531	-74.5761	31.3267	-188.663	-50.4542	-14.507	-212.993	-43.9098	11.2781	-175.284	-24.6127	5.83072	
207	1.725	-156.845	-20.657	33.6244	-132.535	-23.0306	21.7545	-108.415	-13.1773	8.01129	-90.9798	-3.82791	7.15851	-121.925	-35.243	-36.17	-99.8176	-38.0949	-48.7546	-80.8763	-46.1654	-62.5369	-126.492	-68.5671	-29.3052	-111.051	-86.2646	-7.65891	-137.019	-72.2723	20.7636	-139.367	-81.1447	-18.2112	-132.871	-94.8771	8.13734	-147.861	-73.4825	27.9948	-156.227	-96.1067	-10.3709	-146.829	-96.2132	16.2715	-164.945	-74.0747	30.2728	-187.66	-49.004	-13.1156	-209.782	-42.9288	8.26101	-179.87	-21.7253	8.24128	
208	1.73333	-158.596	-16.0115	34.6978	-135.712	-17.2727	17.8872	-111.315	-2.80127	7.85302	-93.3379	8.64998	3.87419	-123.552	-30.3319	-37.2485	-99.0343	-28.3545	-50.3566	-81.3608	-35.6089	-64.0939	-126.782	-61.0418	-30.9257	-107.237	-76.8379	-7.84923	-136.54	-66.599	19.8113	-140.002	-79.2375	-20.2946	-125.849	-84.45	9.80433	-147.017	-66.9258	28.2153	-149.649	-87.8187	-12.9121	-141.024	-88.2275	15.2851	-156.567	-73.3317	29.2153	-188.229	-48.0637	-11.7402	-210.187	-44.4414	10.1503	-181.677	-21.337	6.26303	
209	1.74167	-160.455	-12.0144	32.6919	-138.889	-9.92365	19.693	-115.103	5.53822	2.60742	-101.345	16.8176	0.457693	-126.45	-23.2753	-35.6504	-102.459	-24.8651	-51.6505	-82.0789	-30.4211	-67.4847	-125.884	-57.337	-31.9192	-104.984	-71.6155	-7.39131	-130.668	-58.1973	20.9142	-136.196	-71.0649	-21.1531	-120.5	-79.8981	6.24715	-143.246	-62.1645	27.989	-147.869	-87.0566	-13.2397	-137.178	-88.1998	13.1823	-155.616	-68.0277	28.5998	-188.384	-47.7761	-13.9843	-205.638	-42.025	7.33111	-184.72	-18.4665	5.41039	
210	1.75	-163.412	-7.84619	27.2065	-142.216	-4.60618	15.3133	-122.926	9.78077	-1.02787	-109.227	27.1922	-4.45893	-125.395	-17.1127	-39.7726	-102.7	-17.3246	-54.7892	-85.9881	-24.1053	-68.5289	-122.976	-52.6802	-32.2286	-102.232	-62.1217	-11.5074	-131.82	-54.8345	19.5048	-134.231	-70.9255	-20.0194	-118.169	-73.5798	4.51811	-139.485	-58.791	26.664	-145.95	-85.8503	-14.9943	-131.701	-83.6295	11.7461	-149.063	-64.6769	27.3342	-189.814	-46.1148	-13.0872	-209.676	-45.9526	12.1951	-183.305	-17.3732	1.93066	
211	1.75833	-168.808	-6.84483	26.2451	-147.632	-0.239135	8.17464	-129.967	18.5788	-6.16315	-119.77	30.7066	-9.74753	-129.068	-14.039	-42.7664	-109.657	-15.5663	-56.2819	-87.3391	-19.4826	-73.1248	-125.488	-49.6444	-33.4163	-101.08	-55.2724	-12.7537	-129.585	-49.516	18.6983	-129.25	-68.1145	-19.7978	-115.825	-67.9514	8.22562	-140.847	-51.8982	25.9627	-138.723	-81.4185	-13.1639	-127.324	-77.4162	9.93915	-144.9	-60.372	26.9795	-188.782	-52.2443	-15.4329	-207.825	-49.9423	8.72715	-187.871	-15.1115	-0.117061	
212	1.76667	-174.473	1.44784	22.2855	-156.835	9.4863	9.09987	-141.061	23.6386	-12.3384	-131.961	37.6078	-17.5344	-134.138	-12.5218	-44.3776	-114.699	-9.53482	-58.4185	-92.2108	-10.187	-73.1678	-126.709	-39.5328	-33.079	-101.357	-47.7732	-11.5406	-126.89	-37.9999	18.0414	-129.38	-60.3049	-19.5421	-114.059	-56.4674	9.26368	-136.958	-45.6584	25.3847	-139.438	-75.2423	-10.7328	-123.139	-68.3656	12.7594	-145.766	-57.3602	28.1956	-188.005	-55.1385	-11.7644	-209.718	-52.8727	11.6233	-190.532	-22.6131	-0.726788	
213	1.775	-184.855	-1.59873	20.551	-167.394	13.3751	3.04232	-156.059	25.6686	-19.3442	-151.406	46.445	-29.2702	-139.237	-12.0042	-48.4508	-120.644	-4.95797	-61.4898	-100.433	-7.09309	-73.7459	-123.069	-36.1997	-32.8973	-101.348	-32.2672	-13.2092	-127.035	-29.8337	17.2512	-127.577	-54.4557	-17.3787	-111.944	-44.4563	9.16576	-137.369	-33.5479	24.54	-132.047	-67.1945	-5.96569	-120.927	-53.2176	15.526	-147.99	-44.4912	30.0081	-185.353	-58.5566	-10.2687	-205.863	-57.4537	13.7175	-196.994	-21.807	-0.506287	
214	1.78333	-196.634	-0.503448	13.9351	-181.39	11.7403	-7.51794	-173.575	26.6784	-29.3216	-171.302	42.5146	-38.9852	-148.553	-9.37387	-51.4933	-128.945	-3.8508	-64.4095	-106.187	3.61346	-78.3161	-130.956	-28.6924	-34.1218	-107.992	-12.4382	-12.0889	-136.531	-11.9379	14.64	-127.342	-45.6514	-15.6666	-113.038	-31.5352	7.09355	-144.614	-25.168	22.1853	-128.527	-58.1174	-2.93726	-121.733	-39.1715	18.6096	-151.492	-35.5383	29.6237	-183.459	-58.8236	-10.9377	-204.256	-58.9946	14.5562	-202.921	-29.8955	-5.10809	
215	1.79167	-209.033	-5.92328	6.71009	-201.185	7.91105	-14.7476	-196.155	21.7423	-39.2309	-197.51	34.8555	-50.2348	-162.268	-11.7488	-51.7574	-144.046	-1.50279	-69.395	-123.995	8.63726	-82.3706	-135.227	-20.8379	-36.0426	-119.712	0.358406	-20.6286	-148.83	-1.59042	11.1294	-129.171	-30.2073	-19.4082	-120.451	-15.7485	3.96994	-150.568	-12.1032	18.1535	-126.817	-45.3959	-2.85215	-123.802	-24.207	13.1967	-154.306	-24.0997	26.3245	-181.006	-60.5658	-6.57597	-205.961	-62.954	15.5435	-207.424	-35.8596	-9.5183	
216	1.8	-221.123	-10.2474	5.69481	-212.422	3.05605	-21.8535	-213.932	15.8477	-44.3027	-216.733	26.8372	-61.3223	-171.676	-12.5306	-58.02	-152.773	0.0794049	-78.1202	-137.463	11.6161	-91.1276	-147.896	-15.3682	-41.9116	-131.379	11.2102	-24.4506	-156.63	2.16983	5.35498	-139.061	-26.6502	-22.459	-129.884	-4.84943	-1.61786	-160.667	-7.04173	12.3602	-133.009	-36.2991	-8.55303	-128.957	-14.5615	6.84275	-158.535	-16.0769	20.5419	-184.537	-58.6673	-9.51957	-201.14	-65.6904	16.028	-211.336	-40.2096	-9.22812	
217	1.80833	-228.615	-12.2427	-3.08782	-222.848	-1.70903	-26.0211	-225.92	9.40572	-46.9908	-229.9	18.5239	-65.2665	-181.028	-14.5411	-64.4706	-167.381	-4.90664	-81.794	-151.851	11.0055	-99.4742	-152.165	-12.7468	-48.1857	-142.425	13.0276	-32.9496	-166.242	5.34423	-1.42636	-143.62	-21.1407	-28.0569	-137.393	-1.36303	-8.70144	-170.257	-6.31725	5.58758	-139.786	-34.0709	-11.4009	-134.816	-10.5918	3.44871	-164.735	-16.9058	14.9718	-187.44	-59.9512	-11.2279	-204.034	-65.3571	16.7399	-215.862	-43.9707	-10.7424	
218	1.81667	-234.272	-16.8195	-4.55654	-232.091	-6.86799	-25.8419	-238.058	1.01729	-52.0872	-246.267	11.0591	-68.4967	-191.315	-20.7451	-67.5001	-179.344	-10.2017	-87.8397	-166.187	5.45068	-108.022	-160.975	-16.5491	-53.6628	-152.029	9.93417	-40.5266	-177.053	1.50574	-8.71914	-152.42	-23.9596	-33.065	-150.016	2.94481	-16.0227	-174.579	-7.72563	0.494945	-144.515	-34.1443	-16.1023	-146.97	-6.23941	-6.8861	-172.452	-15.9541	9.08869	-191.222	-61.6932	-11.5694	-204.973	-68.5691	15.189	-222.726	-49.6221	-10.0318	
219	1.825	-240.198	-20.7779	-3.91299	-241.937	-11.9079	-27.2922	-250.741	-7.15302	-56.1647	-257.769	2.02162	-67.9769	-204.189	-27.9015	-71.3579	-192.965	-18.7479	-94.1145	-181.059	-1.95665	-117.526	-174.338	-21.5706	-58.3828	-162.696	6.50864	-47.8875	-185.079	-2.74012	-15.6917	-160.012	-22.2682	-41.0266	-159.966	0.957963	-26.8589	-185.455	-11.9653	-5.62541	-155.011	-32.0093	-25.5309	-152.358	-7.84601	-13.2778	-176.999	-16.5869	1.03873	-194.593	-62.9346	-12.7049	-209.906	-69.1457	13.95	-225.998	-52.1039	-11.7208	
220	1.83333	-247.887	-23.5192	-3.81512	-249.662	-17.286	-27.8949	-263.359	-11.8134	-51.7035	-271.151	-7.21714	-69.1998	-215.221	-35.5873	-74.417	-208.717	-25.6722	-101.107	-202.191	-15.0856	-121.924	-188.921	-26.9898	-64.8689	-178.555	4.48427	-56.6752	-198.659	-8.37533	-22.1482	-169.743	-26.553	-48.9526	-167.466	-3.84264	-32.5934	-191.088	-14.496	-12.2301	-158.292	-32.3303	-34.2286	-161.642	-9.22144	-22.9774	-185.822	-21.6774	-5.49418	-197.29	-66.7901	-14.7384	-212.208	-67.3259	12.2288	-233.819	-54.6716	-12.4534	
221	1.84167	-254.319	-25.649	-3.53904	-257.877	-21.3209	-29.6556	-273.005	-18.6578	-53.4899	-285.078	-13.2297	-66.8897	-227.445	-44.3137	-75.1136	-224.575	-37.1737	-100.968	-218.873	-26.809	-126.421	-200.83	-33.3697	-71.5562	-188.246	-3.30002	-62.0654	-205.708	-16.0646	-26.8349	-183.975	-33.047	-55.6346	-178.889	-7.64877	-40.543	-199.395	-20.9462	-15.9444	-171.46	-36.8624	-42.7151	-171.31	-13.1613	-30.5203	-189.751	-26.6353	-8.11541	-206.302	-69.0637	-17.5907	-214.317	-71.7873	18.3135	-241.321	-57.8776	-11.8519	
222	1.85	-256.639	-28.4758	-3.45459	-264.145	-25.4813	-30.1598	-282.44	-24.4636	-51.7724	-296.762	-19.5829	-66.4478	-243.298	-52.7933	-74.0265	-243.222	-47.1168	-100.695	-240.309	-39.9395	-126.24	-213.441	-43.6705	-73.0182	-201.645	-10.7301	-68.2725	-212.689	-22.9706	-31.4269	-194.938	-40.0414	-62.0155	-187.282	-14.306	-49.3602	-203.002	-23.8422	-20.3985	-180.814	-47.612	-45.7236	-179.895	-19.0692	-36.4229	-195.193	-32.058	-12.3849	-211.365	-75.0447	-17.3507	-218.356	-70.7875	15.5563	-243.468	-61.2449	-5.10948	
223	1.85833	-261.979	-29.4212	-3.08115	-267.176	-25.648	-25.4461	-284.278	-27.3244	-47.6703	-303.284	-21.4322	-60.5491	-255.378	-60.8739	-73.4297	-255.55	-59.0878	-99.5183	-254.899	-54.271	-126.926	-221.085	-52.0863	-74.9508	-211.872	-20.952	-75.2529	-221.09	-27.0214	-33.9309	-206.592	-50.7913	-64.1958	-196.908	-22.4055	-53.8007	-209.769	-26.6045	-26.417	-191.17	-52.8951	-54.1422	-190.236	-27.7834	-45.3657	-200.921	-36.5886	-17.0167	-223.276	-80.0365	-16.4107	-219.779	-76.6397	15.1138	-248.478	-62.8918	-3.97552	
224	1.86667	-262.674	-29.6417	-3.33523	-271.299	-30.4434	-28.827	-293.612	-24.0399	-45.3089	-308.216	-20.5447	-58.9086	-267.296	-65.9642	-71.4363	-270.017	-65.9223	-98.9483	-272.542	-61.6262	-125.007	-231.678	-58.199	-76.6549	-216.67	-29.1481	-74.9434	-227.189	-31.3265	-35.8346	-215.062	-60.8815	-62.8034	-201.24	-31.089	-57.9108	-214.634	-31.3007	-28.5804	-197.526	-63.3067	-56.6039	-192.522	-36.5051	-49.4025	-206.427	-41.2345	-19.5646	-227.734	-84.1105	-12.8106	-226.75	-76.9176	18.5948	-257.911	-63.7587	-3.19262	
225	1.875	-266.003	-26.6426	-2.54157	-277.127	-24.7219	-24.7608	-291.168	-23.6652	-43.6822	-312.342	-18.6982	-60.2204	-276.766	-68.4377	-70.9141	-284.255	-65.9338	-96.1221	-283.247	-68.8876	-118.616	-245.322	-63.7741	-72.9927	-223.671	-37.6801	-78.2131	-229.156	-34.7951	-39.3829	-221.682	-65.0541	-67.3145	-211.266	-36.6995	-62.7883	-216.702	-35.9186	-31.0268	-210.017	-68.8341	-57.3856	-200.787	-44.617	-52.2506	-209.444	-45.8167	-21.0205	-237.519	-86.4962	-11.2183	-231.017	-74.4879	19.6986	-261.925	-61.4402	-0.455533	
226	1.88333	-265.291	-22.6003	-3.49942	-273.282	-23.2185	-27.4909	-296.556	-16.3345	-46.6772	-311.13	-12.2769	-61.5743	-284.139	-63.2017	-65.4409	-292.688	-64.2551	-92.2209	-296.532	-65.1695	-115.574	-251.937	-63.2582	-73.7699	-229.056	-38.2742	-77.5772	-232.832	-36.4424	-38.658	-232.906	-66.2223	-66.7424	-213.218	-44.1812	-63.5285	-222.287	-38.2122	-30.7278	-215.184	-74.59	-58.8707	-203.413	-50.3404	-52.873	-213.801	-47.2321	-26.2358	-243.283	-87.5496	-12.8122	-238.744	-74.2438	17.8721	-264.002	-58.475	2.99393	
227	1.89167	-258.801	-18.6652	-1.54918	-270.542	-17.3385	-25.829	-289.074	-10.0589	-46.0661	-304.738	-2.61367	-61.6523	-289.428	-55.5738	-61.7802	-300.059	-54.7587	-86.4658	-304.085	-55.3011	-115.638	-259.193	-59.3293	-72.9454	-233.312	-37.179	-79.0009	-232.847	-34.4891	-38.9609	-236.333	-68.404	-67.5365	-216.981	-44.2868	-64.3615	-222.399	-39.7295	-30.1787	-225.979	-77.7168	-55.1972	-208.324	-56.6416	-56.9025	-211.16	-49.7473	-25.7591	-256.026	-82.521	-11.6759	-241.319	-73.0957	18.3171	-271.49	-51.6226	2.31116	
228	1.9	-255.084	-12.7318	0.719803	-263.587	-8.92962	-22.7317	-281.038	0.767907	-43.7939	-296.205	14.6812	-57.1803	-292.853	-46.715	-62.1549	-302.561	-44.1967	-84.7022	-308.978	-41.3093	-113.873	-262.279	-54.3434	-72.1202	-234.534	-38.16	-78.5231	-230.401	-34.6267	-41.4141	-243.199	-68.8277	-62.0615	-220.081	-45.5754	-64.7247	-219.727	-38.1641	-34.5783	-231.137	-79.1147	-54.8337	-211.033	-55.8215	-54.5264	-219.297	-50.1571	-26.625	-259.231	-78.6395	-8.97861	-247.692	-69.9157	20.2652	-269.782	-43.4739	6.16743	
